<svg xmlns="http://www.w3.org/2000/svg" width="133.343" height="45.159" viewBox="0 0 133.343 45.159">
  <g id="Логотип" transform="translate(-58.657 -19.841)">
    <g id="logo" transform="translate(5 -6)">
      <g id="Сгруппировать_2" data-name="Сгруппировать 2">
        <text id="PlatformaKino_" data-name="PlatformaKino
" transform="translate(94 49)" fill="#fff" font-size="15" font-family="PTSans-Bold, PT Sans" font-weight="700"><tspan x="0" y="0">PlatformaKino</tspan><tspan x="0" y="18"></tspan></text>
      </g>
    </g>
    <g id="Лого" transform="translate(7 -7)">
      <g id="Прямоугольник_38" data-name="Прямоугольник 38" transform="translate(53 39)" fill="#fff" stroke="#2c2c2c" stroke-width="1">
        <rect width="25" height="18" stroke="none"/>
        <rect x="0.5" y="0.5" width="24" height="17" fill="none"/>
      </g>
      <g id="Прямоугольник_39" data-name="Прямоугольник 39" transform="translate(51.657 33.732) rotate(-16)" fill="#fff" stroke="#2c2c2c" stroke-width="1">
        <rect width="25" height="6" stroke="none"/>
        <rect x="0.5" y="0.5" width="24" height="5" fill="none"/>
      </g>
      <line id="Линия_1" data-name="Линия 1" x2="24" transform="translate(53.5 44.5)" fill="none" stroke="#2c2c2c" stroke-width="1"/>
      <line id="Линия_2" data-name="Линия 2" x2="12" transform="translate(59.5 48.5)" fill="none" stroke="#2c2c2c" stroke-width="1"/>
      <path id="Контур_8" data-name="Контур 8" d="M0,0H12" transform="translate(59.5 51.5)" fill="#2c2c2c" stroke="#2c2c2c" stroke-width="1"/>
      <line id="Линия_4" data-name="Линия 4" x1="4" y2="5" transform="translate(70.5 39.5)" fill="none" stroke="#2c2c2c" stroke-width="1"/>
      <line id="Линия_5" data-name="Линия 5" x1="4" y2="5" transform="translate(62.5 39.5)" fill="none" stroke="#2c2c2c" stroke-width="1"/>
      <line id="Линия_6" data-name="Линия 6" x1="4" y2="5" transform="translate(66.5 39.5)" fill="none" stroke="#2c2c2c" stroke-width="1"/>
      <line id="Линия_7" data-name="Линия 7" x1="4" y2="5" transform="translate(58.5 39.5)" fill="none" stroke="#2c2c2c" stroke-width="1"/>
      <line id="Линия_8" data-name="Линия 8" x1="4" y2="5" transform="translate(54.5 39.5)" fill="none" stroke="#2c2c2c" stroke-width="1"/>
      <line id="Линия_11" data-name="Линия 11" x1="6" y1="4" transform="translate(63.5 30.171)" fill="none" stroke="#2c2c2c" stroke-width="1"/>
      <line id="Линия_12" data-name="Линия 12" x1="6" y1="4" transform="translate(58 32)" fill="none" stroke="#2c2c2c" stroke-width="1"/>
      <line id="Линия_14" data-name="Линия 14" x1="6" y1="4" transform="translate(69.5 29)" fill="none" stroke="#2c2c2c" stroke-width="1"/>
      <line id="Линия_15" data-name="Линия 15" x2="5" y2="3" transform="translate(52.5 34.671)" fill="none" stroke="#2c2c2c" stroke-width="1"/>
    </g>
  </g>
</svg>
